<?xml version="1.0" encoding="utf-8"?>
<!-- Generator: Adobe Illustrator 19.0.0, SVG Export Plug-In . SVG Version: 6.00 Build 0)  -->
<svg version="1.1" id="Layer_1" xmlns="http://www.w3.org/2000/svg" xmlns:xlink="http://www.w3.org/1999/xlink" x="0px" y="0px"
	 viewBox="0 0 1920.1 427.2" style="enable-background:new 0 0 1920.1 427.2;" xml:space="preserve">
<style type="text/css">
	.st0{fill:#B2E6EA;}
	.st1{fill:#66C6D3;}
	.st2{fill:url(#XMLID_135_);}
</style>
<path id="XMLID_4_" class="st0" d="M1721,105.9c0,0-248,65.9-380,22.9s-344-74-540-4s-520,36-613-11s-337-34-412,26v28h1945V105.9z"
	/>
<path id="XMLID_3_" class="st1" d="M1934,126.9c0,0-248,65.9-380,22.9s-344-74-540-4s-520,36-613-11s-337-34-412,26v28h1945V126.9z"
	/>
<linearGradient id="XMLID_135_" gradientUnits="userSpaceOnUse" x1="972.5" y1="84.444" x2="972.5" y2="4159.7974">
	<stop  offset="0" style="stop-color:#1DA5BF"/>
	<stop  offset="5.405372e-02" style="stop-color:#1C9CB6"/>
	<stop  offset="0.7078" style="stop-color:#143850"/>
	<stop  offset="1" style="stop-color:#111028"/>
</linearGradient>
<path id="XMLID_2_" class="st2" d="M1533,115.6c-93,48.3-417,83.2-613,11.3S512,86.9,380,131S0,107.5,0,107.5v63.6v3988.7h1920
	V171.1h25v-28.8C1870,80.7,1626,67.3,1533,115.6z"/>
</svg>
